HIERARCHY
ROOT Hips
{
  OFFSET -331.093 83.8371 -317.828
  CHANNELS 6 Xposition Yposition Zposition Zrotation Xrotation Yrotation
  JOINT LeftUpLeg
  {
    OFFSET 8.64259 1.95398 -2.38835
    CHANNELS 3 Zrotation Xrotation Yrotation
    JOINT LeftLeg
    {
      OFFSET 43.7702 0 0
      CHANNELS 3 Zrotation Xrotation Yrotation
      JOINT LeftFoot
      {
        OFFSET 40.6238 0 0
        CHANNELS 3 Zrotation Xrotation Yrotation
        JOINT LeftToeBase
        {
          OFFSET 12.7242 0 0
          CHANNELS 3 Zrotation Xrotation Yrotation
          End Site
          {
            OFFSET 0 0 0
          }
        }
      }
    }
  }
  JOINT RightUpLeg
  {
    OFFSET -8.2249 1.95398 -2.59336
    CHANNELS 3 Zrotation Xrotation Yrotation
    JOINT RightLeg
    {
      OFFSET 43.5653 0 0
      CHANNELS 3 Zrotation Xrotation Yrotation
      JOINT RightFoot
      {
        OFFSET 40.6238 0 0
        CHANNELS 3 Zrotation Xrotation Yrotation
        JOINT RightToeBase
        {
          OFFSET 12.7242 0 0
          CHANNELS 3 Zrotation Xrotation Yrotation
          End Site
          {
            OFFSET 0 0 0
          }
        }
      }
    }
  }
  JOINT Spine
  {
    OFFSET 0.165834 0.87714 6.61349
    CHANNELS 3 Zrotation Xrotation Yrotation
    JOINT Spine1
    {
      OFFSET 7.38963 1.71661e-005 0
      CHANNELS 3 Zrotation Xrotation Yrotation
      JOINT Spine2
      {
        OFFSET 11.9445 1.14441e-005 0
        CHANNELS 3 Zrotation Xrotation Yrotation
        JOINT Spine3
        {
          OFFSET 14.7254 4.19617e-005 0
          CHANNELS 3 Zrotation Xrotation Yrotation
          JOINT Spine4
          {
            OFFSET 10.9679 0 0
            CHANNELS 3 Zrotation Xrotation Yrotation
            JOINT RightShoulder
            {
              OFFSET 2.46616 -1.6653 3.69651
              CHANNELS 3 Zrotation Xrotation Yrotation
              JOINT RightArm
              {
                OFFSET 13.0012 0 0
                CHANNELS 3 Zrotation Xrotation Yrotation
                JOINT RightForeArm
                {
                  OFFSET 28.7848 1.62311e-005 0
                  CHANNELS 3 Zrotation Xrotation Yrotation
                  JOINT RightHand
                  {
                    OFFSET 26.5688 1.62095e-005 0
                    CHANNELS 3 Zrotation Xrotation Yrotation
                    End Site
                    {
                      OFFSET 0 0 0
                    }
                  }
                }
              }
            }
            JOINT LeftShoulder
            {
              OFFSET 2.38034 -1.29275 -3.7523
              CHANNELS 3 Zrotation Xrotation Yrotation
              JOINT LeftArm
              {
                OFFSET 16.3182 6.07031e-005 0
                CHANNELS 3 Zrotation Xrotation Yrotation
                JOINT LeftForeArm
                {
                  OFFSET 27.0901 0 0
                  CHANNELS 3 Zrotation Xrotation Yrotation
                  JOINT LeftHand
                  {
                    OFFSET 24.5451 1.51738e-005 0
                    CHANNELS 3 Zrotation Xrotation Yrotation
                    End Site
                    {
                      OFFSET 0 0 0
                    }
                  }
                }
              }
            }
            JOINT Neck
            {
              OFFSET 5.0226 -0.0266342 0
              CHANNELS 3 Zrotation Xrotation Yrotation
              JOINT Head
              {
                OFFSET 6.69364 2.86102e-005 0
                CHANNELS 3 Zrotation Xrotation Yrotation
                End Site
                {
                  OFFSET 0 0 0
                }
              }
            }
          }
        }
      }
    }
  }
}
MOTION
Frames:	7
Frame Time:	0.0416667
33.9571 92.6049 -32.7025 90.847 -45.7567 84.7178 -174.682 30.449 82.8779 -35.7262 11.353 -4.43375 61.1344 1.31724 5.7022 33.6987 4.80742 3.90288 175.987 2.40822 82.4991 -61.777 -7.74575 -7.96057 41.2768 7.86906 6.8663 28.3742 -0.797955 -6.90703 0.952996 7.5343 -89.0056 11.7855 2.36258 1.7317 0.115663 2.43648 1.62601 -22.4206 1.73304 2.36158 -2.40795 1.73305 2.36158 91.5602 -38.7915 -100.654 30.7867 -13.6325 -1.12734 -9.71353 -6.56431 -53.2652 -14.2417 -0.826822 1.4536 -93.0565 -49.113 74.4323 -28.999 0.103259 24.2759 6.22696 25.2815 -24.8887 6.27462 0.710469 6.1808 -3.43595 -5.84334 1.72524 1.59668 -6.1514 -5.65752 
40.6269 94.5766 -28.0251 91.1197 -43.7439 85.757 -175.65 23.4422 82.4217 -33.6196 9.96919 -3.53517 65.8678 4.5612 4.83884 29.346 0.721323 1.33671 177.25 11.345 84.4794 -68.8078 -0.162749 -6.02275 47.6153 4.45397 3.4774 24.3856 -0.531349 -7.64 0.659879 7.52663 -89.2046 11.8088 1.68629 1.40667 0.138258 1.74656 1.33108 -22.3957 1.18564 1.84836 -2.3831 1.18565 1.84835 91.5667 -40.0937 -100.299 31.9789 -14.4682 2.39212 -8.08146 -7.34582 -48.1124 -11.6385 -0.715367 1.79689 -93.559 -48.7871 73.5923 -30.6602 2.2456 18.9922 5.47503 20.0645 -27.1247 9.61794 0.977109 5.76978 -3.65594 -5.35818 1.97631 0.955155 -5.64247 -4.70798 
47.2638 96.8648 -23.352 91.6733 -40.7256 88.1041 -177.307 15.877 83.2639 -29.4369 11.7074 -1.86523 64.9254 3.46405 4.52142 32.0782 3.20787 2.81802 176.517 17.8975 87.3918 -67.0346 2.43915 -4.24764 53.8534 1.80306 1.18957 29.4835 -1.02966 -8.36693 0.248339 7.52295 -89.5627 11.8251 0.699607 0.797937 0.154103 0.734067 0.766369 -22.3797 0.427478 0.971303 -2.36701 0.427461 0.971297 91.7404 -40.7805 -99.8255 33.3782 -15.2062 6.68185 -8.60878 -10.0295 -44.4351 -5.9279 -0.37848 1.33137 -93.8263 -48.4563 73.0998 -31.399 3.90248 14.2191 6.46102 14.6273 -33.7404 12.714 1.16395 5.0997 -4.07904 -4.49132 1.14518 0.890084 -4.61503 -1.65817 
53.3839 98.2221 -18.7884 90.7836 -37.3771 88.3533 -177.65 9.00568 83.7472 -23.8572 13.0629 -1.24468 65.0861 3.55831 4.27515 32.6509 3.69726 2.95752 175.461 23.5773 89.0098 -57.9908 3.77213 -2.77884 58.8742 -0.0765941 -0.129239 33.7723 -1.12484 -6.3454 -0.216167 7.4462 -89.7972 11.9814 -0.334119 0.44072 0.310414 -0.314409 0.455002 -22.2248 -0.451126 0.319928 -2.21213 -0.451133 0.319933 91.718 -41.5065 -99.6829 34.1317 -15.9497 11.2869 -9.93247 -13.9196 -41.9353 -2.21539 -0.221524 1.68145 -94.325 -48.2108 72.2826 -30.15 7.1025 8.87141 6.87692 9.59596 -41.3869 14.4739 1.09408 3.60502 -4.01967 -3.79403 0.765941 0.994951 -3.8323 0.352457 
59.0367 98.3252 -14.1437 89.3944 -34.4035 87.4619 -177.205 4.5423 84.4778 -21.6819 15.2732 -1.21004 65.5868 3.20776 3.54531 34.7462 5.68044 3.94379 174.909 26.8024 89.319 -41.9541 4.30486 -1.55013 61.4464 -1.33582 -0.845477 36.0731 -1.72891 -8.72293 -0.599948 7.36453 -89.8514 12.1473 -1.12221 0.420844 0.476722 -1.1026 0.469823 -22.0622 -1.19682 0.0640628 -2.04957 -1.1968 0.0640713 91.5179 -42.3941 -99.8022 35.1221 -15.8391 15.7358 -9.62264 -15.6793 -39.9076 0.436906 -0.0795745 1.76523 -94.126 -46.9066 72.1948 -27.4382 9.52294 2.28997 9.60375 8.14616 -48.9518 14.5191 0.973441 2.78763 -3.12725 -3.35848 0.0175294 0.865632 -3.29227 1.48723 
65.06 97.242 -9.23599 88.6971 -32.4451 86.1265 -176.666 0.196184 84.4184 -21.9516 16.4379 -1.29074 67.0902 3.59402 2.77719 40.3032 10.8861 5.49327 175.144 26.3961 88.1794 -20.0777 0.414242 -1.09986 61.6877 -2.26926 -1.23962 42.543 -2.91278 -10.9679 -0.882523 7.35241 -89.7708 12.1746 -1.64562 0.640195 0.504542 -1.61586 0.712004 -22.0389 -1.76194 0.115874 -2.02622 -1.76194 0.11587 91.9138 -42.4908 -99.1148 36.8036 -15.1703 19.3185 -10.1659 -17.3645 -38.6706 2.60529 0.0595885 2.5436 -93.5976 -45.2582 72.5108 -22.9816 11.0972 -5.20544 9.92537 5.16411 -54.3305 14.0841 0.83934 2.05382 -1.86823 -2.91701 -1.04888 0.388164 -2.70011 2.74537 
71.0935 95.722 -3.93509 87.6212 -31.4218 84.8732 -175.918 -3.79564 85.2641 -22.2415 20.0949 -1.1938 68.0874 6.60786 5.8172 43.0505 12.6053 4.0207 176.291 28.8728 88.074 -6.57266 -0.54711 -2.25921 63.536 -2.03721 -1.0428 46.5493 -2.88443 -9.14636 -1.06041 7.31805 -89.7254 12.2457 -1.97745 0.769578 0.575985 -1.94166 0.855873 -21.9709 -2.11727 0.139456 -1.95827 -2.11727 0.139447 92.6434 -42.47 -97.8958 37.5094 -14.5119 22.1468 -10.7177 -18.2722 -38.4046 4.4195 0.171951 2.72936 -92.7831 -43.8681 73.3691 -18.962 9.7865 -11.6923 10.0074 3.05445 -58.6428 13.3868 0.742829 1.6448 -0.238771 -2.57548 -2.20812 -0.541199 -2.18978 4.12925 
